<svg xmlns="http://www.w3.org/2000/svg" width="342" height="388" version="1.1"><rect id="backgroundrect" width="100%" height="100%" x="0" y="0" fill="none" stroke="none" class="" style=""/>





<g class="currentLayer" style=""><title>Layer 1</title><g id="#0170baff" class="">
<path fill="#0170ba" opacity="1.00" d="M0,0.011544189453118747 C113.92,0.0015441894531278422 227.83,-0.008455810546877274 341.75,0.011544189453118747 C335.48,70.86154418945313 329.31,141.71154418945312 322.78,212.54154418945313 C318.9,257.8115441894531 314.9,303.0815441894531 310.68,348.3215441894531 C286.37,354.7615441894531 262.3,362.10154418945314 238,368.5715441894531 C215.68,375.1215441894531 193.18,381.0515441894531 170.85,387.5515441894531 L170.19,387.5515441894531 C148.94,381.23154418945313 127.48,375.67154418945313 106.23,369.35154418945314 C81.15,362.59154418945315 56.29,355.0515441894531 31.2,348.3215441894531 C27.93,314.41154418945314 24.98,280.48154418945313 22.07,246.55154418945312 C16.58,183.86154418945313 10.61,121.21154418945312 5.33,58.51154418945313 C3.5,39.64154418945313 2.19,20.71154418945312 0,1.8815441894531233 L0,0.011544189453118747 M171.41,27.96154418945312 C171.17,41.571544189453135 171.59,55.19154418945311 171.17,68.79154418945313 C132.09,68.65154418945312 93,68.76154418945313 53.92,68.80154418945312 C54.59,82.01154418945313 56.36,95.13154418945314 58.18,108.23154418945313 C94.54,109.58154418945313 130.95,108.18154418945312 167.31,109.27154418945312 C135.5,123.54154418945313 103.3,136.98154418945313 71.35,150.95154418945313 C68.61,152.17154418945313 65.68,153.09154418945312 63.23,154.87154418945312 C63.5,169.3815441894531 65.84,183.81154418945312 66.87,198.29154418945313 C86.25,198.22154418945314 105.62,197.91154418945314 125,197.8815441894531 C140.53,197.80154418945312 156.07,198.11154418945313 171.6,197.77154418945315 C170.86,221.6315441894531 171.83,245.52154418945315 171.1,269.3815441894531 C160.65,267.8315441894531 150.33,265.5015441894531 139.92,263.65154418945315 C131.71,261.8615441894531 123.3,260.9315441894531 115.21,258.5815441894531 C114.06,247.1315441894531 113.26,235.6415441894531 112.24,224.18154418945312 C109.9,223.46154418945315 107.42,223.53154418945314 105,223.49154418945312 C93.26,223.56154418945312 81.51,223.4515441894531 69.76,223.6315441894531 C70.91,245.66154418945314 72.89,267.66154418945314 76.26,289.48154418945313 C87.84,292.5015441894531 99.44,295.46154418945315 111,298.6115441894531 C128.71,303.4315441894531 146.64,307.4415441894531 164.38,312.1815441894531 C166.49,312.6315441894531 168.62,313.41154418945314 170.81,313.23154418945313 C171.99,327.72154418945314 171.08,342.3015441894531 171.3,356.8315441894531 C175.39,356.17154418945313 179.41,355.16154418945314 183.36,353.9415441894531 C216.94,344.8215441894531 250.48,335.53154418945314 284.04,326.3215441894531 C285.71,313.1215441894531 286.49,299.8315441894531 287.81,286.60154418945314 C291.3,246.3815441894531 294.82,206.16154418945314 298.48,165.9515441894531 C302.77,119.95154418945313 306.48,73.90154418945312 310.8,27.90154418945312 C264.33,27.941544189453126 217.87,27.81154418945313 171.41,27.96154418945312 z" id="svg_4"/>
</g><g id="#29a9dfff" class="">
<path fill="#29a9df" opacity="1.00" d="M171.41,27.96154418945312 C217.87,27.81154418945313 264.33,27.941544189453126 310.8,27.90154418945312 C306.48,73.90154418945312 302.77,119.95154418945313 298.48,165.9515441894531 C294.82,206.16154418945314 291.3,246.3815441894531 287.81,286.60154418945314 C286.49,299.8315441894531 285.71,313.1215441894531 284.04,326.3215441894531 C250.48,335.53154418945314 216.94,344.8215441894531 183.36,353.9415441894531 C179.41,355.16154418945314 175.39,356.17154418945313 171.3,356.8315441894531 C171.08,342.3015441894531 171.99,327.72154418945314 170.81,313.23154418945313 C171.11,313.17154418945313 171.72,313.0515441894531 172.02,312.9915441894531 C203.25,305.15154418945315 234.27,296.52154418945315 265.43,288.40154418945315 C269.37,244.2015441894531 273.74,200.02154418945315 276.51,155.73154418945313 C250.01,155.87154418945312 223.5,155.79154418945313 197,155.90154418945312 C193.14,155.92154418945313 189.28,155.90154418945312 185.44,155.62154418945312 C199.7,148.28154418945311 214.7,142.46154418945312 229.34,135.91154418945314 C243.39,129.54154418945313 257.61,123.57154418945314 271.71,117.32154418945314 C274.43,116.07154418945314 277.33,115.03154418945311 279.72,113.17154418945313 C280.66,109.72154418945311 280.61,106.11154418945313 280.98,102.58154418945313 C281.79,91.38154418945314 283.23,80.24154418945312 283.77,69.03154418945311 C246.24,68.73154418945313 208.71,68.99154418945312 171.17,68.79154418945313 C171.59,55.19154418945311 171.17,41.571544189453135 171.41,27.96154418945312 z" id="svg_5"/>
<path fill="#29a9df" opacity="1.00" d="M171.6,197.77154418945315 C189.72,197.46154418945315 207.85,197.9515441894531 225.98,197.8315441894531 C224.97,216.36154418945313 223.43,234.86154418945313 222.47,253.3915441894531 C211.36,257.02154418945315 200.08,260.09154418945315 188.88,263.4515441894531 C182.91,265.27154418945315 176.78,266.71154418945315 171.1,269.3815441894531 C171.83,245.52154418945315 170.86,221.6315441894531 171.6,197.77154418945315 z" id="svg_6"/>
</g><g id="#cfcfcfff" class="">
<path fill="#cfcfcf" opacity="1.00" d="M53.92,68.80154418945312 C93,68.76154418945313 132.09,68.65154418945312 171.17,68.79154418945313 C171.68,111.79154418945313 171.04,154.79154418945313 171.6,197.77154418945315 C156.07,198.11154418945313 140.53,197.80154418945312 125,197.8815441894531 C105.62,197.91154418945314 86.25,198.22154418945314 66.87,198.29154418945313 C65.84,183.81154418945312 63.5,169.3815441894531 63.23,154.87154418945312 C65.68,153.09154418945312 68.61,152.17154418945313 71.35,150.95154418945313 C103.3,136.98154418945313 135.5,123.54154418945313 167.31,109.27154418945312 C130.95,108.18154418945312 94.54,109.58154418945313 58.18,108.23154418945313 C56.36,95.13154418945314 54.59,82.01154418945313 53.92,68.80154418945312 z" id="svg_7"/>
<path fill="#cfcfcf" opacity="1.00" d="M69.76,223.6315441894531 C81.51,223.4515441894531 93.26,223.56154418945312 105,223.49154418945312 C107.42,223.53154418945314 109.9,223.46154418945315 112.24,224.18154418945312 C113.26,235.6415441894531 114.06,247.1315441894531 115.21,258.5815441894531 C123.3,260.9315441894531 131.71,261.8615441894531 139.92,263.65154418945315 C150.33,265.5015441894531 160.65,267.8315441894531 171.1,269.3815441894531 C172.1,283.90154418945315 170.35,298.52154418945315 172.02,312.9915441894531 C171.72,313.0515441894531 171.11,313.17154418945313 170.81,313.23154418945313 C168.62,313.41154418945314 166.49,312.6315441894531 164.38,312.1815441894531 C146.64,307.4415441894531 128.71,303.4315441894531 111,298.6115441894531 C99.44,295.46154418945315 87.84,292.5015441894531 76.26,289.48154418945313 C72.89,267.66154418945314 70.91,245.66154418945314 69.76,223.6315441894531 z" id="svg_8"/>
</g><g id="#ffffffff" class="">
<path fill="#ffffff" opacity="1.00" d="M171.17,68.79154418945313 C208.71,68.99154418945312 246.24,68.73154418945313 283.77,69.03154418945311 C283.23,80.24154418945312 281.79,91.38154418945314 280.98,102.58154418945313 C280.61,106.11154418945313 280.66,109.72154418945311 279.72,113.17154418945313 C277.33,115.03154418945311 274.43,116.07154418945314 271.71,117.32154418945314 C257.61,123.57154418945314 243.39,129.54154418945313 229.34,135.91154418945314 C214.7,142.46154418945312 199.7,148.28154418945311 185.44,155.62154418945312 C189.28,155.90154418945312 193.14,155.92154418945313 197,155.90154418945312 C223.5,155.79154418945313 250.01,155.87154418945312 276.51,155.73154418945313 C273.74,200.02154418945315 269.37,244.2015441894531 265.43,288.40154418945315 C234.27,296.52154418945315 203.25,305.15154418945315 172.02,312.9915441894531 C170.35,298.52154418945315 172.1,283.90154418945315 171.1,269.3815441894531 C176.78,266.71154418945315 182.91,265.27154418945315 188.88,263.4515441894531 C200.08,260.09154418945315 211.36,257.02154418945315 222.47,253.3915441894531 C223.43,234.86154418945313 224.97,216.36154418945313 225.98,197.8315441894531 C207.85,197.9515441894531 189.72,197.46154418945315 171.6,197.77154418945315 C171.04,154.79154418945313 171.68,111.79154418945313 171.17,68.79154418945313 z" id="svg_9"/>
</g></g></svg>