<svg xmlns:dc="http://purl.org/dc/elements/1.1/" xmlns:cc="http://creativecommons.org/ns#" xmlns:rdf="http://www.w3.org/1999/02/22-rdf-syntax-ns#" xmlns:svg="http://www.w3.org/2000/svg" xmlns="http://www.w3.org/2000/svg" xmlns:sodipodi="http://sodipodi.sourceforge.net/DTD/sodipodi-0.dtd" xmlns:inkscape="http://www.inkscape.org/namespaces/inkscape" version="1.1" width="397" height="450" sodipodi:docname="Javascript-shield.svg" inkscape:version="0.92.2 2405546, 2018-03-11"><rect id="backgroundrect" width="100%" height="100%" x="0" y="0" fill="none" stroke="none" class="" style=""/>
  <metadata id="metadata70">
    <rdf:RDF>
      <cc:Work rdf:about="">
        <dc:format>image/svg+xml</dc:format>
        <dc:type rdf:resource="http://purl.org/dc/dcmitype/StillImage"/>
        <dc:title/>
      </cc:Work>
    </rdf:RDF>
  </metadata>
  <defs id="defs68"/>
  <sodipodi:namedview pagecolor="#ffffff" bordercolor="#666666" borderopacity="1" objecttolerance="10" gridtolerance="10" guidetolerance="10" inkscape:pageopacity="0" inkscape:pageshadow="2" inkscape:window-width="1920" inkscape:window-height="1016" id="namedview66" showgrid="false" fit-margin-top="0" fit-margin-left="0" fit-margin-right="0" fit-margin-bottom="0" inkscape:zoom="1.0628712" inkscape:cx="364.99449" inkscape:cy="300.83113" inkscape:window-x="0" inkscape:window-y="27" inkscape:window-maximized="1" inkscape:current-layer="svg64"/>
  
  
  
  
  
<g class="currentLayer" style=""><title>Layer 1</title><path style="fill:#ffffff;stroke-width:1.33333337" d="m1.33372,-0.0000012499999968440534 l0.06250000000000001,5 c0.034440000000000005,2.75 8.00162,93.80066 17.70507,202.33399 L36.74387,404.66796875 l79.29492,22.20117 c43.61211,12.21062 80.19493,22.26265 81.29493,22.33985 c1.1,0.07710000000000002 38.16591,-9.87392 82.36914,-22.11329 c70.87044,-19.6232 80.43786,-22.57875 80.94531,-25.00781 c0.7070000000000001,-3.38418 35.41255,-394.89905 35.37695,-399.08789 l-0.025400000000000006,-3 H198.66575 z" id="path118" inkscape:connector-curvature="0" class=""/><path inkscape:connector-curvature="0" id="path88" d="m116.66667,428.19728875 l-80,-22.36163 l-1.04545,-5.9171700000000005 C34.69191,394.65870875 0,7.184188750000004 0,2.0645687500000065 c0,-1.85291 20.25565,-2.06327 198.66667,-2.06327 c188.32331,0 198.66587,0.12147000000000001 198.65133,2.33333 c-0.06280000000000001,9.55335 -35.97164,402.15858 -36.85409,402.94002 c-1.11511,0.9874599999999999 -155.95653,44.12552 -161.13057,44.89017 c-1.4666700000000001,0.21676000000000004 -38.66667,-9.66863 -82.66667,-21.96753 zM249.11103,349.18426875 c26.88893,-7.41602 49.27699,-13.86602 49.75121,-14.33333 c0.47423,-0.46731000000000006 3.62071,-32.34964 6.99216,-70.84964 c3.37146,-38.5 6.47022,-72.55 6.88612,-75.66667 L313.49674,182.66796875 h-58.08171 h-58.08169 v24.66666 v24.66667 h31.35873 h31.35873 l-0.6238000000000001,3 c-0.34309000000000006,1.6500000000000001 -1.67673,15.82935 -2.9636400000000003,31.50967 c-1.36361,16.6149 -2.98028,29.1501 -3.87486,30.04469 c-0.8442700000000001,0.8442700000000001 -13.62206,4.75671 -28.3951,8.69431 l-26.86006,7.15929 v25.12935 c0,17.15185 0.45852000000000004,25.12936 1.44436,25.12936 c0.7944,0 23.4444,-6.06767 50.33333,-13.4837 zM312.73228,151.66796875 C311.85092,145.13458875 304,57.505138749999986 304,54.20100875 c0,-2.00692 -4.61566,-2.19971 -52.66666,-2.19971 h-52.66667 v25.79372 v25.79373 l23.66667,0.91218 c13.01666,0.5016900000000001 26.71548,1.26522 30.4418,1.6967400000000001 l6.77512,0.78459 l1.64474,20.17619 c0.9046000000000001,11.0969 1.9824799999999998,22.42618 2.39528,25.17618 l0.75055,5 h24.57795 h24.57796 z" style="fill:#eaebec;stroke-width:1.33333337" sodipodi:nodetypes="sccsssccsscsccccccccsscscssscsscccsccsscccc" class=""/><path inkscape:connector-curvature="0" id="path80" d="M116.0386,426.86906875 L36.74387,404.66796875 L19.10122,207.33462874999998 C9.39776,98.80129875 1.43039,7.751298750000004 1.39595,5.001298750000004 l-0.06260000000000002,-5 H198.66667 H396 l0.025600000000000005,3 c0.03560000000000001,4.18884 -34.67072,395.70379 -35.37772,399.08797 c-0.50745,2.42906 -10.07454,5.38483 -80.94498,25.00803 c-44.20323,12.23937 -81.26951,22.19028 -82.36951,22.11315 c-1.1,-0.07720000000000002 -37.68263,-10.13076 -81.29473,-22.34138 zm133.13264,-76.74193 c27.41084,-7.62076 50.2269,-14.48533 50.70234,-15.2546 c0.47542000000000006,-0.7692700000000001 3.75001,-34.28 7.27684,-74.46829 c3.52682,-40.18828 6.70121,-74.11962 7.05418,-75.40295 C314.81095,182.79673874999997 310.14694,182.66796875 229.69083,182.66796875 H144.5353 l3.6256500000000003,-38.33334 c1.99411,-21.08333 3.6736700000000004,-38.38792 3.7323500000000003,-38.45464 c0.05870000000000001,-0.06670000000000002 12.5567,-0.46537000000000006 27.77337,-0.8859000000000001 c24.95099,-0.6895800000000001 76.40477,1.30088 78.12613,3.02224 c0.6430800000000001,0.6430800000000001 4.87387,42.15037 4.87387,47.81645 c0,2.79381 0.37699000000000005,2.83519 25.83621,2.83519 h25.83623 l-0.6088400000000002,-5.66667 c-0.3348700000000001,-3.11667 -2.52341,-27.26667 -4.86345,-53.66667 l-4.25462,-48 l-99.63942,-0.3418200000000001 c-79.26871,-0.27194 -99.64168,0.00065 -99.65038,1.3333300000000001 c-0.007000000000000002,0.92135 -0.58701,6.77516 -1.29109,13.00849 c-1.70375,15.08355 -14.697967,160.82251 -14.697967,164.84759 v3.15241 h84.783857 h84.78387 l-0.7558100000000001,5 c-0.4157,2.75 -1.7336400000000003,16.7 -2.92876,31 c-1.19512,14.3 -2.55774,26.3694 -3.02806,26.82091 c-1.24218,1.19249 -51.11936,14.51707 -54.22958,14.48731 c-1.44404,-0.013800000000000003 -14.325520000000001,-3.22779 -28.62552,-7.14216 l-26,-7.11703 l-0.95343,-11.19119 c-0.52439,-6.15514 -1.3221500000000002,-14.94117 -1.7728000000000002,-19.5245 l-0.81936,-8.33334 h-25.2272 h-25.227207 l0.055900000000000005,5 c0.1044,9.35062 6.16783,72.33478 7.04834,73.21528 c1.01833,1.01835 97.912237,28.25511 100.895817,28.36171 c1.1,0.03930000000000001 24.42706,-6.16372 51.83791,-13.78448 z" style="fill:#f0be25;stroke-width:1.33333337" sodipodi:nodetypes="ccsccccccscccccscscsccsssccscscssccccsccscsscccccccc" class=""/><path inkscape:connector-curvature="0" id="path78" d="M116.0386,426.86906875 L36.74387,404.66796875 L19.10122,207.33462874999998 C9.39776,98.80129875 1.43039,7.751298750000004 1.39595,5.001298750000004 l-0.06260000000000002,-5 H198.66667 H396 l0.025600000000000005,3 c0.03560000000000001,4.18884 -34.67072,395.70379 -35.37772,399.08797 c-0.50745,2.42906 -10.07454,5.38483 -80.94498,25.00803 c-44.20323,12.23937 -81.26951,22.19028 -82.36951,22.11315 c-1.1,-0.07720000000000002 -37.68263,-10.13076 -81.29473,-22.34138 zm147.87439,-29.70081 c34.881190000000004,-9.62484 64.07555,-18.17484 64.87636,-19 C330.0356,376.88408875 360.16146,46.71404874999999 360.04024,35.66796875 l-0.04020000000000001,-3.6666700000000003 H279.33338 H198.66671 V41.33462875000001 V50.66796875 H152 c-36.43861,0 -46.66906,0.36529 -46.6776,1.6666600000000003 c-0.007000000000000002,0.9166700000000001 -0.58701,6.76667 -1.29109,13 c-1.70375,15.08355 -14.697967,160.82251 -14.697967,164.84759 v3.15241 H144 H198.66667 v38.66667 c0,30.05784 -0.37107000000000007,38.66108 -1.6666700000000003,38.64155 c-0.91666,-0.013900000000000003 -13.36666,-3.22779 -27.66666,-7.14216 l-26,-7.11703 l-0.95343,-11.19119 c-0.52439,-6.15514 -1.3221500000000002,-14.94117 -1.7728000000000002,-19.5245 l-0.81936,-8.33334 h-25.2272 h-25.227207 l0.055900000000000005,5 c0.15972000000000003,14.30148 6.3465,72.67926 7.79746,73.576 c0.8819000000000001,0.5450400000000001 24.075687,7.2095 51.541737,14.80988 l49.93823,13.81888 v25.06428 c0,13.78536 0.41084000000000004,25.0643 0.9129900000000001,25.0643 c0.50213,0 29.45213,-7.8748700000000005 64.33333,-17.49971 zM148.02046,144.69293875 c1.91684,-20.88627 3.7464,-38.21141 4.06569,-38.50032 c0.31928000000000006,-0.28889000000000004 10.93052,-0.8116300000000001 23.58052,-1.16161 l23,-0.6363500000000001 V143.53130875 V182.66796875 H171.60098 H144.5353 z" style="fill:#e4a126;stroke-width:1.33333337" sodipodi:nodetypes="ccsccccccscccscccccccscsscccscscsscccccscsssscscccccs" class=""/></g></svg>